PathFileType	4	(X/Y/Z)	SUBJ89_3_walk_RCNL2025.trc
DataRate	CameraRate	NumFrames	NumMarkers	Units	OrigDataRate	OrigDataStartFrame	OrigNumFrames
100	100	11	25	mm	100	29	227
Frame#	Time	R_Shoulder			L_Shoulder			C7			J_Notch			R_Elbow			L_Elbow			R_Wrist			L_Wrist			R_Asis			L_Asis			Sacral			Thoracic			Sternum			R_Thigh_Lateral			R_Knee_Lateral			R_Shank_Lateral			R_Ankle_Lateral			R_Heel			R_Toe			L_Thigh_Lateral			L_Knee_Lateral			L_Shank_Lateral			L_Ankle_Lateral			L_Heel			L_Toe		
		X1	Y1	Z1	X2	Y2	Z2	X3	Y3	Z3	X4	Y4	Z4	X5	Y5	Z5	X6	Y6	Z6	X7	Y7	Z7	X8	Y8	Z8	X9	Y9	Z9	X10	Y10	Z10	X11	Y11	Z11	X12	Y12	Z12	X13	Y13	Z13	X14	Y14	Z14	X15	Y15	Z15	X16	Y16	Z16	X17	Y17	Z17	X18	Y18	Z18	X19	Y19	Z19	X20	Y20	Z20	X21	Y21	Z21	X22	Y22	Z22	X23	Y23	Z23	X24	Y24	Z24	X25	Y25	Z25
29	0.28000000	-677.889404	1413.306396	-18.321663	-721.199951	1442.422119	-429.036865	-757.452209	1517.985229	-212.822800	-647.564453	1387.647217	-226.652008	-761.456970	1086.565918	28.940462	-792.655212	1107.948486	-489.423462	-638.359222	846.510956	-1.280578	-658.657257	874.200378	-482.410828	-673.836731	997.827087	-112.342972	-666.184692	995.709900	-349.696350	-836.901978	1053.728516	-226.850769	-851.316284	1340.599365	-215.095490	-621.711792	1239.677490	-243.622421	-738.034363	612.049744	-58.484310	-759.547058	495.216034	-117.429474	-812.428223	275.018951	-73.681061	-864.088257	73.764313	-151.883514	-903.955688	67.169922	-195.672729	-706.870117	38.053040	-171.980698	-581.528931	595.286011	-451.509949	-560.697205	514.991699	-381.266998	-629.551819	288.498871	-405.070862	-637.739624	93.762726	-328.237579	-663.196472	104.845184	-272.835419	-490.965210	56.371758	-342.551758
30	0.29000000	-663.541931	1411.741821	-18.436605	-707.991028	1440.218872	-429.106964	-743.648315	1516.087524	-212.862213	-633.721252	1385.689087	-226.716385	-744.405701	1084.520020	30.111561	-782.564514	1106.443481	-489.490479	-616.770294	847.031799	-3.036541	-652.577271	870.477844	-484.995148	-660.476501	996.029663	-111.891396	-652.167114	993.395020	-349.315826	-823.306396	1051.963501	-226.838989	-837.528076	1338.819580	-214.763153	-607.968079	1237.606567	-243.466431	-730.048218	610.929138	-57.877617	-754.412354	494.309326	-116.813293	-810.192627	274.644226	-73.146156	-863.818420	73.943039	-151.899414	-903.692078	67.596992	-195.734619	-706.803894	37.987789	-171.952087	-566.164001	593.296082	-450.058075	-544.218750	513.895813	-379.588654	-599.725647	284.150269	-404.725403	-594.781372	88.713249	-329.145477	-620.817810	97.926407	-273.703369	-445.868286	60.211514	-343.657104
31	0.30000000	-649.160889	1409.880737	-18.636860	-694.799866	1437.758667	-429.249969	-729.799805	1513.924805	-212.972336	-619.828674	1383.456665	-226.864319	-727.391113	1082.233032	31.149206	-772.153931	1104.622925	-489.470856	-595.365295	847.348907	-4.798059	-646.488647	866.394379	-487.602875	-647.030151	994.044678	-111.513435	-638.026062	990.770630	-349.035492	-809.645569	1049.906006	-226.902634	-823.704224	1336.794434	-214.528595	-594.184692	1235.258789	-243.409729	-721.957764	609.695374	-57.276283	-749.109497	493.361755	-116.201653	-807.899902	274.288696	-72.672890	-863.523499	74.180435	-151.970795	-903.391357	68.098587	-195.868668	-706.726624	37.930801	-171.913849	-551.730652	590.410400	-448.614258	-528.230103	512.329041	-377.853271	-570.130920	280.285583	-404.553680	-552.292053	84.835938	-330.301147	-578.921631	92.124268	-274.903290	-401.710907	65.123154	-344.577423
32	0.31000000	-634.733398	1407.760986	-18.926468	-681.608215	1435.072510	-429.466095	-715.901672	1511.524780	-213.158112	-605.881287	1380.983765	-227.098343	-710.422913	1079.739014	32.034489	-761.409485	1102.511841	-489.367432	-574.185974	847.472076	-6.551976	-640.382538	861.990753	-490.216187	-633.493042	991.891907	-111.184540	-623.760437	987.890503	-348.825439	-795.911377	1047.577637	-227.036942	-809.838074	1334.548462	-214.386475	-580.353882	1232.671631	-243.452225	-713.749268	608.357483	-56.689404	-743.622925	492.379547	-115.610008	-805.537415	273.963867	-72.279114	-863.202271	74.495354	-152.115051	-903.046082	68.695358	-196.095139	-706.634521	37.883102	-171.867188	-538.127869	586.695007	-447.200104	-512.643799	510.362671	-376.078827	-540.839539	276.936340	-404.565033	-510.598267	82.097198	-331.658783	-537.867126	87.424034	-276.401123	-358.777710	70.985962	-345.162598
33	0.32000000	-620.247620	1405.421753	-19.309338	-668.393738	1432.189575	-429.756683	-701.949158	1508.919067	-213.426102	-591.874451	1378.307007	-227.419983	-693.512268	1077.072144	32.750687	-750.320068	1100.135620	-489.184662	-553.272675	847.409332	-8.285165	-634.248779	857.312927	-492.814453	-619.864441	989.591919	-110.877090	-609.374146	984.806946	-348.651855	-782.094604	1045.007568	-227.237930	-795.922485	1332.109741	-214.331497	-566.465759	1229.885132	-243.590546	-705.411743	606.927185	-56.123638	-737.930420	491.368439	-115.053795	-803.086487	273.681885	-71.980835	-862.853638	74.908798	-152.345032	-902.651062	69.412025	-196.428452	-706.524353	37.844730	-171.814575	-525.186829	582.274414	-445.830566	-497.357391	508.079651	-374.286163	-511.969360	274.107391	-404.743317	-470.070038	80.401566	-333.142731	-498.041931	83.755035	-278.123260	-317.394226	77.597549	-345.294373
34	0.33000000	-605.694397	1402.904419	-19.789156	-655.131714	1429.137817	-430.125000	-687.937256	1506.143677	-213.784576	-577.803589	1375.466675	-227.830109	-676.670837	1074.267090	33.283588	-738.876526	1097.520508	-488.928558	-532.663666	847.166779	-9.984310	-628.075867	852.411133	-495.374924	-606.147217	987.165771	-110.563461	-594.874146	981.570984	-348.480286	-768.184875	1042.233032	-227.501450	-781.949036	1329.510620	-214.359222	-552.507874	1226.941772	-243.818542	-696.936157	605.418762	-55.583797	-732.001282	490.332916	-114.548264	-800.521362	273.455627	-71.790619	-862.476074	75.443848	-152.665573	-902.204041	70.277512	-196.873001	-706.393738	37.814625	-171.759735	-512.673035	577.333435	-444.513367	-482.258484	505.570068	-372.498962	-483.690002	271.771271	-405.045105	-431.112732	79.591972	-334.650848	-459.852417	80.994377	-279.959869	-277.917328	84.671021	-344.895172
35	0.34000000	-591.067444	1400.253174	-20.369190	-641.796631	1425.944702	-430.576569	-673.860413	1503.239014	-214.243393	-563.663269	1372.506592	-228.329498	-659.909790	1071.360229	33.621628	-727.071777	1094.694458	-488.606445	-512.395050	846.748718	-11.635625	-621.850708	847.339539	-497.873810	-592.346436	984.635132	-110.219406	-580.266846	978.232849	-348.279938	-754.169861	1039.299561	-227.822296	-767.907715	1326.787964	-214.466797	-538.465210	1223.886230	-244.127884	-688.313171	603.849548	-55.073711	-725.794617	489.275909	-114.108009	-797.807373	273.298950	-71.715462	-862.066345	76.125954	-153.069870	-901.705627	71.325401	-197.418930	-706.242310	37.790489	-171.707413	-500.297943	572.109924	-443.249451	-467.231659	502.926025	-370.742279	-456.219330	269.865570	-405.401733	-394.152252	79.456520	-336.062653	-423.709442	78.975327	-281.774017	-240.718277	91.841980	-343.931915
36	0.35000000	-576.364258	1397.515991	-21.052010	-628.363098	1422.638794	-431.119446	-659.712280	1500.249634	-214.813843	-549.446533	1369.474243	-228.919022	-643.239319	1068.391968	33.755917	-714.900330	1091.688477	-488.226776	-492.500992	846.158752	-13.224636	-615.557831	842.155884	-500.287781	-578.466370	982.022583	-109.827019	-565.555054	974.844177	-348.027679	-740.035461	1036.260132	-228.193375	-753.786316	1323.982544	-214.653595	-524.320068	1220.766357	-244.508652	-679.528992	602.239380	-54.597145	-719.258118	488.198212	-113.745956	-794.898560	273.226471	-71.754402	-861.618408	76.983749	-153.536621	-901.158081	72.594841	-198.038788	-706.072510	37.768635	-171.662964	-487.742462	566.877625	-442.034424	-452.165802	500.236481	-369.039886	-429.809235	268.296082	-405.726471	-359.612183	79.742744	-337.252197	-390.009521	77.500565	-283.416870	-206.159409	98.687202	-342.415009
37	0.36000000	-561.586060	1394.745850	-21.839231	-614.806763	1419.250000	-431.763794	-645.485352	1497.224121	-215.508255	-535.143921	1366.420532	-229.599777	-626.668762	1065.407837	33.680244	-702.359131	1088.537109	-487.799164	-473.014297	845.401428	-14.736128	-609.178589	836.920898	-502.595261	-564.506287	979.352234	-109.377037	-550.734924	971.459778	-347.711304	-725.765503	1033.173218	-228.605286	-739.570496	1321.138916	-214.921555	-510.053009	1217.632812	-244.950119	-670.560181	600.610107	-54.158680	-712.326965	487.098755	-113.471809	-791.736267	273.253571	-71.896454	-861.121643	78.050346	-154.028687	-900.562927	74.131927	-198.686096	-705.890808	37.743729	-171.631882	-474.691986	561.918823	-440.859985	-436.962372	497.583130	-367.410858	-404.721130	266.947083	-405.925140	-327.884705	80.179466	-338.104156	-359.111847	76.360329	-284.746460	-174.566132	104.754509	-340.392548
38	0.37000000	-546.737244	1392.001587	-22.731359	-601.104004	1415.811401	-432.520966	-631.171021	1494.214722	-216.339600	-520.743896	1363.399780	-230.372971	-610.207031	1062.460205	33.391144	-689.447693	1085.279541	-487.334351	-453.966888	844.484283	-16.154318	-602.689941	831.698120	-504.777008	-550.457458	976.650024	-108.870071	-535.796143	968.139282	-347.331116	-711.342651	1030.100708	-229.046112	-725.244324	1318.304199	-215.275299	-495.643585	1214.539673	-245.441681	-661.367371	598.983887	-53.764297	-704.923645	485.974701	-113.290230	-788.248474	273.396851	-72.119698	-860.559204	79.364983	-154.494614	-899.916687	75.991547	-199.296921	-705.708252	37.708588	-171.619293	-460.877594	557.491455	-439.715240	-421.542816	495.037659	-365.866241	-381.194733	265.697632	-405.909302	-299.297516	80.504387	-338.529602	-331.312408	75.354050	-285.647614	-146.197357	109.601677	-337.941315
39	0.38000000	-531.824768	1389.347168	-23.727753	-587.232117	1412.359253	-433.402405	-616.760071	1491.276367	-217.320816	-506.233368	1360.468384	-231.239670	-593.863647	1059.608154	32.888042	-676.169434	1081.960571	-486.844177	-435.390488	843.420258	-17.463287	-596.062988	826.553680	-506.816803	-536.301147	973.944153	-108.316757	-520.722778	964.948364	-346.899445	-696.748596	1027.105835	-229.501465	-710.791199	1315.528442	-215.722092	-481.071869	1211.543579	-245.973602	-651.889526	597.381287	-53.421589	-696.958008	484.821930	-113.199020	-784.351257	273.674866	-72.392128	-859.904724	80.974762	-154.873093	-899.204895	78.239128	-199.795197	-705.541260	37.654167	-171.629242	-446.115143	553.797974	-438.587952	-405.855011	492.661255	-364.407135	-359.414124	264.441528	-405.609772	-274.080750	80.493782	-338.479187	-306.818054	74.313309	-286.048401	-121.217545	112.839821	-335.155762
